FILE "COCC-18148.wav" WAVE
  TRACK 01 AUDIO
    INDEX 01 00:00:00
  TRACK 02 AUDIO
    INDEX 00 04:43:52
    INDEX 01 04:45:53
FILE "COCC-18150.wav" WAVE
  TRACK 03 AUDIO
    INDEX 01 00:00:00
  TRACK 04 AUDIO
    INDEX 00 04:08:50
    INDEX 01 04:10:59
